<?xml version="1.0" standalone="no"?>
<!DOCTYPE svg PUBLIC "-//W3C//DTDSVG20010904//EN"   "http://www.w3.org/TR/2001/REC-SVG-20010904/DTD/svg10.dtd">
<svg version="1.0" xmlns="http://www.w3.org/2000/svg" width="300.000000pt" height="528.000000pt" viewBox="0 0 300.000000 528.000000" preserveAspectRatio="xMidYMid meet">
    <metadata>
        Created by potrace 1.15, written by Peter Selinger 2001-2017
    </metadata>
    <g transform="translate(0.000000,528.000000) scale(0.100000,-0.100000)" fill="#000000" stroke="none">
        <g>
            <path d="M1248 5275 c-3 -3 -273 -6 -601 -7 -356 -1 -597 -6 -597 -11 0 -6
                                                292 -7 743 -3 2194 18 2141 18 2159 3 17 -13 18 -136 24 -2040 l6 -2027 -37 0
                                                c-20 0 -46 -5 -57 -11 -42 -23 -152 -40 -215 -33 -60 6 -62 7 -68 38 -13 71
                                                -40 171 -46 176 -9 6 -26 164 -35 320 -6 107 -5 117 15 139 12 13 21 32 21 41
                                                0 9 15 31 34 48 30 27 34 36 29 65 -3 20 -1 37 6 41 17 11 14 91 -5 107 -30
                                                25 -68 122 -104 269 -5 19 -16 58 -25 85 -9 28 -19 60 -22 73 -3 12 -30 48
                                                -60 79 l-54 57 4 141 c4 156 14 190 52 181 15 -4 43 4 80 24 31 17 63 30 70
                                                30 31 0 91 169 66 185 -6 3 -9 16 -6 28 6 23 -52 191 -80 230 -8 12 -15 42
                                                -15 67 0 25 -7 55 -15 67 -8 11 -26 52 -41 89 -14 38 -31 83 -38 100 -6 18
                                                -18 39 -26 48 -19 24 -76 46 -119 46 -20 0 -64 7 -96 16 -38 10 -83 14 -123
                                                11 -35 -3 -72 -3 -82 0 -26 7 -31 58 -8 83 28 29 22 40 -22 40 -32 0 -40 4
                                                -40 18 0 12 -15 25 -40 36 -28 12 -42 26 -47 44 -13 54 -54 71 -181 74 -117 2
                                                -154 -13 -172 -67 -12 -35 -23 -44 -35 -25 -24 38 -67 -42 -89 -162 -15 -90
                                                -15 -100 0 -122 8 -14 25 -28 37 -32 12 -4 27 -14 33 -22 6 -8 25 -16 43 -17
                                                18 -2 38 -11 46 -21 12 -17 10 -22 -20 -47 -23 -19 -41 -49 -60 -100 -14 -39
                                                -35 -95 -46 -122 -10 -28 -19 -62 -19 -76 0 -45 -29 -112 -65 -149 -52 -54
                                                -80 -116 -67 -145 6 -13 14 -48 18 -77 4 -29 10 -60 15 -69 13 -26 97 -109
                                                111 -110 7 0 35 -3 62 -5 33 -3 54 0 65 9 9 8 25 18 37 21 20 6 23 -4 60 -151
                                                38 -154 57 -193 92 -193 16 0 12 -32 -5 -38 -7 -2 -13 4 -13 14 0 13 -3 15
                                                -11 7 -8 -8 -6 -19 4 -40 13 -23 13 -34 4 -50 -7 -11 -20 -35 -30 -52 -10 -17
                                                -35 -82 -57 -144 -21 -62 -54 -155 -74 -207 -23 -61 -32 -98 -26 -104 6 -6 10
                                                -21 10 -33 0 -16 10 -30 29 -41 38 -21 56 -75 47 -139 -4 -26 -11 -129 -15
                                                -228 -5 -99 -11 -187 -15 -195 -4 -9 -20 -17 -37 -18 -17 -1 -29 1 -27 5 2 5
                                                14 31 28 58 19 40 24 66 24 130 1 70 -3 87 -29 134 -31 57 -104 128 -141 137
                                                -13 3 -29 21 -40 45 -20 47 -39 59 -88 59 -29 0 -44 9 -82 46 -41 42 -45 49
                                                -35 70 6 13 18 24 27 24 14 0 14 -3 4 -15 -20 -24 -2 -34 63 -37 59 -2 86 14
                                                87 54 0 9 4 20 10 23 19 12 10 42 -24 79 -19 20 -37 36 -40 36 -12 0 8 -37 32
                                                -57 28 -24 25 -54 -6 -47 -21 6 -47 -19 -37 -36 4 -6 14 -9 23 -8 10 2 17 -4
                                                17 -12 0 -10 -12 -16 -37 -18 -28 -2 -38 1 -38 11 0 23 -34 47 -58 40 -25 -6
                                                -29 8 -8 26 8 7 22 40 31 76 21 78 14 155 -21 220 -13 25 -24 48 -24 49 0 2
                                                11 7 25 10 31 8 33 38 3 66 -12 11 -25 20 -29 20 -6 0 -19 44 -33 110 -3 14
                                                -19 34 -36 45 -23 16 -30 27 -30 53 0 47 -46 92 -94 92 -20 0 -36 1 -36 3 0 1
                                                6 19 14 41 20 58 63 79 51 25 -8 -37 6 -50 47 -42 21 4 28 2 28 -11 0 -9 5
                                                -16 11 -16 6 0 9 12 7 28 -2 21 -9 28 -29 30 -22 3 -28 11 -39 53 -8 27 -22
                                                56 -31 65 -23 21 -65 11 -80 -19 -6 -12 -21 -32 -32 -44 -23 -25 -17 -52 13
                                                -60 12 -3 19 -10 17 -16 -7 -23 -23 -15 -47 23 -13 22 -28 40 -32 40 -19 0 -6
                                                33 22 57 23 19 29 30 24 49 -4 15 0 34 10 49 33 51 12 125 -36 125 -13 0 -29
                                                5 -35 11 -6 6 -26 14 -45 18 -50 10 -64 48 -50 132 12 69 8 96 -23 159 -40 82
                                                -158 130 -240 96 -54 -23 -66 -43 -51 -81 7 -16 11 -35 9 -41 -2 -6 4 -17 13
                                                -25 14 -11 18 -11 29 4 15 21 40 13 72 -22 12 -14 23 -20 23 -13 0 22 31 13
                                                61 -19 16 -18 32 -29 35 -27 10 10 -64 78 -84 78 -12 0 -37 9 -56 21 -20 11
                                                -41 19 -48 17 -7 -3 -21 9 -31 25 -18 29 -18 30 3 51 17 18 32 21 89 20 91 -2
                                                131 -28 167 -109 25 -56 26 -63 16 -115 -7 -31 -12 -73 -12 -93 l0 -36 -45 45
                                                c-85 84 -211 115 -318 76 -40 -14 -59 -16 -66 -9 -15 15 -14 32 4 47 9 7 13
                                                21 9 34 -8 32 28 61 77 61 40 0 52 11 23 22 -44 17 -124 -42 -124 -91 0 -19
                                                -21 -21 -38 -4 -15 15 -15 43 0 67 16 26 -4 71 -31 71 -11 0 -23 5 -26 10 -9
                                                14 -28 12 -22 -2 2 -7 -2 -20 -10 -29 -15 -18 -8 -49 12 -49 7 0 22 12 33 28
                                                18 23 21 25 27 10 4 -9 0 -27 -8 -39 -18 -25 -6 -71 23 -92 9 -6 20 -26 24
                                                -42 6 -26 1 -35 -30 -65 -20 -19 -49 -60 -64 -91 -16 -32 -37 -59 -48 -61 -18
                                                -5 -20 1 -20 88 0 52 4 96 9 99 5 4 9 14 9 24 0 10 7 24 15 31 22 18 18 43
                                                -10 70 -29 28 -33 74 -8 102 16 18 16 18 0 12 -16 -6 -17 11 -18 212 -1 121 0
                                                294 1 387 2 199 -14 230 -25 45 -4 -68 -4 -964 -1 -1993 3 -1029 6 -1941 5
                                                -2029 0 -128 2 -157 13 -154 7 3 14 21 16 42 3 36 4 37 40 31 l37 -5 -35 13
                                                -35 14 -3 72 c-2 42 2 78 8 86 19 23 59 24 86 2 22 -17 24 -25 19 -57 -5 -32
                                                -3 -40 14 -49 30 -16 113 -13 150 5 24 12 36 13 44 5 6 -6 24 -11 39 -11 25 0
                                                28 -3 28 -34 l0 -34 -67 -7 c-71 -7 -112 -25 -131 -56 -18 -28 6 -25 37 5 26
                                                24 36 26 211 43 97 9 151 3 203 -24 60 -30 139 -40 182 -22 17 7 33 13 37 13
                                                10 2 23 16 24 29 0 7 6 27 13 45 10 25 19 32 35 30 17 -2 21 -10 22 -42 0 -33
                                                4 -40 23 -43 13 -2 30 2 37 8 10 8 19 7 36 -5 20 -14 23 -14 40 1 10 9 18 25
                                                18 35 0 11 5 18 12 15 7 -2 12 -14 10 -25 -2 -15 2 -22 15 -23 30 -2 48 2 51
                                                12 3 6 9 6 17 -1 21 -18 78 -21 110 -6 17 8 42 20 58 27 28 13 36 29 40 89 2
                                                33 5 35 42 40 36 5 37 6 15 13 -46 13 -68 8 -76 -15 -4 -13 -15 -29 -25 -36
                                                -25 -18 -24 -42 2 -42 14 0 19 -5 17 -17 -4 -21 -53 -25 -53 -5 0 6 -3 12 -7
                                                12 -5 0 -15 0 -23 0 -18 0 -20 -31 -3 -48 9 -9 3 -12 -28 -12 -28 0 -43 5 -52
                                                20 -16 26 -42 26 -49 0 -8 -29 -23 -24 -30 10 -4 25 -10 30 -29 27 -27 -3 -39
                                                -13 -39 -33 0 -7 -4 -13 -10 -11 -5 1 -9 12 -7 25 2 20 -1 22 -25 19 -20 -2
                                                -29 -10 -31 -25 -2 -12 -10 -22 -18 -22 -9 0 -14 7 -13 18 6 34 -19 62 -56 62
                                                -38 0 -44 13 -21 43 12 15 16 16 28 4 11 -12 43 -16 133 -19 24 -1 94 11 115
                                                19 8 3 24 8 35 10 11 2 22 8 23 13 2 6 17 10 34 10 17 0 62 11 99 25 38 13 70
                                                24 72 24 1 0 16 5 32 11 35 13 41 13 37 -3 -1 -7 7 0 18 15 18 23 25 26 46 18
                                                14 -6 27 -10 29 -10 1 0 25 18 51 40 35 29 55 39 69 35 11 -4 36 -6 56 -5 34
                                                1 37 -2 43 -34 4 -19 18 -55 31 -81 30 -55 30 -51 5 -58 -33 -9 -23 -26 13
                                                -21 50 8 90 -30 90 -85 0 -72 -1 -72 -280 -73 -164 -1 -185 4 -146 34 10 7 31
                                                32 47 56 16 23 34 42 41 42 23 0 40 33 45 89 5 53 6 56 43 70 37 14 39 13 62
                                                -10 16 -17 24 -38 26 -69 l3 -45 -42 3 c-38 2 -58 -11 -30 -20 20 -7 -1 -27
                                                -53 -49 -27 -12 -49 -25 -49 -30 0 -13 17 -11 48 5 32 17 73 23 88 13 6 -3 22
                                                5 34 18 13 14 20 25 16 25 -5 0 -3 7 4 15 21 25 3 128 -28 163 -24 25 -31 28
                                                -58 20 -18 -4 -46 -21 -63 -37 -25 -24 -31 -37 -29 -64 2 -35 -17 -71 -32 -62
                                                -4 3 -22 -17 -39 -44 -38 -59 -67 -86 -75 -72 -9 14 -48 -5 -64 -30 -10 -15
                                                -10 -20 0 -23 7 -2 28 -8 47 -14 22 -8 39 -8 46 -2 7 6 16 5 23 -2 13 -13 207
                                                -22 232 -11 8 3 45 7 82 7 61 1 70 4 95 30 21 23 28 26 37 15 14 -18 101 -59
                                                125 -59 26 0 112 50 105 61 -3 5 16 9 43 9 26 0 58 3 71 6 13 4 22 2 22 -5 0
                                                -6 -14 -14 -30 -18 -17 -3 -36 -14 -43 -23 -7 -10 -21 -20 -32 -23 -11 -2 25
                                                -4 80 -4 97 1 98 1 30 7 -81 7 -82 12 -5 15 57 3 130 28 130 45 0 5 16 -2 36
                                                -15 20 -14 47 -25 60 -25 12 0 31 -3 41 -7 13 -6 4 -10 -32 -14 l-50 -6 63 -1
                                                c39 -1 61 2 57 8 -9 15 38 22 161 24 105 1 115 -1 110 -16 -2 -11 1 -18 10
                                                -18 12 0 14 376 14 2624 0 1443 -3 2632 -6 2640 -6 15 -89 16 -874 16 -477 0
                                                -869 -3 -872 -5z m368 -1222 c-7 -7 -26 7 -26 19 0 6 6 6 15 -2 9 -7 13 -15
                                                11 -17z m164 -2 c15 -30 12 -33 -10 -11 -22 22 -25 30 -10 30 5 0 14 -9 20
                                                -19z m-264 -67 c22 -9 41 -15 44 -14 25 12 50 18 50 13 0 -13 -34 -43 -49 -43
                                                -12 0 -13 -2 -2 -12 10 -11 14 -10 22 5 6 9 21 17 33 17 13 0 27 7 30 16 5 12
                                                9 14 20 5 7 -6 26 -12 41 -13 21 -2 31 -10 39 -30 12 -31 26 -37 26 -10 0 23
                                                36 47 43 28 3 -7 26 -16 51 -18 25 -3 58 -14 73 -24 27 -18 32 -20 53 -23 18
                                                -2 11 -35 -15 -74 -17 -24 -47 -48 -85 -67 -76 -38 -90 -38 -90 -1 0 17 -5 33
                                                -10 36 -8 5 -7 11 1 21 9 11 9 18 1 26 -8 8 -14 3 -24 -18 -20 -46 -79 -114
                                                -99 -114 -21 0 -34 16 -19 25 16 10 12 23 -7 27 -13 2 -7 9 20 21 20 10 37 20
                                                37 23 0 9 -48 -2 -63 -14 -12 -10 -14 -8 -9 13 4 25 -11 35 -23 15 -15 -24
                                                -42 -8 -60 36 -20 49 -43 68 -66 53 -22 -14 -36 -11 -42 11 -3 13 1 24 14 31
                                                14 7 18 17 14 39 -6 35 -1 36 51 14z m264 -4 c0 -5 -5 -10 -11 -10 -5 0 -7 5
                                                -4 10 3 6 8 10 11 10 2 0 4 -4 4 -10z m300 -106 c0 -83 -39 -140 -115 -165
                                                -22 -7 -47 -19 -56 -26 -11 -9 -49 -13 -120 -13 -93 1 -102 2 -79 14 16 9 42
                                                12 75 9 53 -5 84 5 145 46 58 39 75 69 75 131 l-1 55 38 -3 c38 -4 38 -4 38
                                                -48z m119 41 c47 -8 103 -17 123 -20 45 -7 98 -54 98 -87 0 -13 5 -29 12 -36
                                                14 -14 58 -163 52 -174 -9 -14 -62 -9 -67 6 -5 12 -11 12 -32 3 -19 -9 -24
                                                -17 -20 -34 4 -17 -2 -25 -27 -37 -17 -9 -38 -16 -46 -16 -9 0 -12 -6 -8 -16
                                                3 -9 4 -19 1 -24 -7 -11 -84 29 -96 51 -5 11 -19 19 -30 19 -10 0 -24 10 -30
                                                23 -13 27 -82 77 -108 77 -23 0 -46 -25 -31 -35 12 -7 14 -65 1 -65 -17 0 -76
                                                24 -83 33 -4 7 -18 4 -40 -6 -18 -8 -60 -18 -93 -22 -60 -7 -95 -26 -95 -51 0
                                                -7 -5 -16 -11 -20 -27 -16 5 43 39 73 20 18 34 33 29 33 -15 0 -77 -46 -77
                                                -58 0 -7 -4 -20 -9 -30 -10 -19 -24 -53 -25 -64 -1 -3 -5 -10 -10 -15 -9 -8
                                                -2 33 18 102 8 30 20 44 43 55 18 8 33 18 33 23 0 13 -27 8 -40 -8 -7 -8 -18
                                                -15 -25 -15 -13 0 -30 -40 -40 -90 -7 -37 -12 -33 -13 12 -2 33 4 48 25 70 15
                                                15 33 28 40 28 7 0 13 9 13 20 0 11 3 19 8 18 4 -1 43 2 87 7 112 11 162 10
                                                180 -5 9 -7 19 -10 22 -6 4 4 2 11 -6 15 -16 10 11 39 50 53 15 5 34 19 42 31
                                                24 38 49 127 45 163 -5 39 -10 38 101 19z m-649 -138 c0 -5 -7 -4 -15 3 -8 7
                                                -15 20 -15 29 1 13 3 13 15 -3 8 -11 15 -24 15 -29z m45 -17 c8 -13 -5 -13
                                                -25 0 -13 8 -13 10 2 10 9 0 20 -4 23 -10z m-29 -67 c9 -16 24 -33 32 -39 12
                                                -9 9 -15 -17 -35 -28 -22 -32 -32 -38 -92 -5 -57 -4 -67 10 -67 21 0 30 -16
                                                22 -41 -9 -28 -51 -18 -83 19 l-23 27 -16 -22 c-16 -23 -47 -31 -57 -14 -3 5
                                                1 14 9 21 8 7 15 22 15 34 0 58 49 189 80 215 33 27 44 26 66 -6z m53 -11
                                                c-12 -5 -39 17 -39 30 0 5 11 1 24 -9 13 -10 20 -20 15 -21z m21 -69 c0 -5
                                                -14 -16 -30 -25 -17 -9 -30 -25 -31 -35 -2 -55 -19 -84 -19 -32 0 52 10 76 33
                                                87 26 13 47 15 47 5z m461 -45 c53 -58 57 -65 52 -92 -3 -15 -1 -26 6 -26 6 0
                                                11 -7 11 -15 0 -18 16 -20 23 -2 4 9 8 8 17 -3 9 -11 13 -12 17 -2 8 19 27 14
                                                62 -17 27 -24 36 -28 51 -19 22 14 69 -13 77 -43 6 -23 23 -25 23 -3 0 9 -16
                                                32 -35 51 -40 40 -40 50 -1 32 14 -7 29 -10 32 -6 11 11 -6 25 -36 32 -34 7
                                                -41 25 -10 25 11 0 20 5 20 10 0 6 -10 10 -22 10 -21 1 -22 2 -5 14 9 7 17 24
                                                17 37 1 24 1 24 25 -6 14 -16 33 -38 43 -49 12 -14 14 -20 5 -23 -18 -6 -16
                                                -23 2 -23 18 0 20 -16 4 -26 -8 -4 -6 -10 6 -17 13 -7 14 -11 5 -17 -15 -10
                                                -4 -30 16 -30 8 0 12 5 9 10 -4 6 -4 24 0 40 6 26 9 28 26 17 22 -13 25 -33 7
                                                -39 -8 -3 -1 -12 15 -22 30 -20 35 -36 12 -36 -21 0 -19 -13 5 -28 29 -18 25
                                                -34 -7 -26 l-28 7 30 -33 30 -33 -27 5 c-29 5 -41 -15 -15 -25 7 -3 6 -6 -5
                                                -6 -17 -1 -22 -34 -9 -56 10 -16 7 -48 -4 -52 -6 -1 -16 1 -23 6 -10 6 -11 21
                                                -3 72 13 80 14 99 1 99 -5 0 -10 -14 -10 -31 0 -27 -2 -30 -15 -19 -8 7 -15
                                                21 -15 32 0 14 -5 18 -16 14 -9 -3 -20 -6 -26 -6 -14 0 44 -68 60 -69 16 -1
                                                15 -18 -3 -56 -13 -27 -14 -28 -9 -4 4 19 -2 34 -25 58 -17 18 -35 29 -42 26
                                                -7 -5 -7 -11 -1 -17 6 -6 8 -16 5 -23 -2 -8 1 -24 8 -37 11 -21 11 -22 -5 -9
                                                -9 8 -19 11 -22 8 -9 -9 13 -43 42 -66 l26 -21 -40 3 c-27 1 -38 6 -35 15 3 6
                                                -2 12 -10 12 -8 0 -17 6 -20 13 -3 9 -10 9 -30 -2 -30 -16 -42 -10 -42 22 0
                                                18 -5 22 -32 20 -27 -3 -30 0 -26 18 5 19 4 20 -16 9 -21 -11 -22 -10 -17 8 4
                                                11 2 23 -4 27 -6 3 -8 11 -5 16 9 13 -9 11 -24 -3 -11 -11 -12 -5 -6 28 4 26
                                                2 44 -4 48 -7 5 -7 15 -1 32 14 37 13 97 -2 92 -7 -3 -15 -14 -18 -26 -3 -12
                                                -18 -29 -34 -37 -27 -15 -28 -14 -22 7 3 13 9 51 13 85 6 59 5 63 -25 90 -24
                                                22 -29 34 -25 56 7 35 18 34 54 -5z m-164 -22 c7 -1 22 -12 34 -24 11 -12 24
                                                -20 28 -18 12 8 60 -38 62 -59 3 -45 -2 -85 -11 -85 -5 0 -10 19 -10 43 -1 41
                                                -18 77 -37 77 -6 0 -16 7 -23 15 -7 8 -20 15 -29 15 -14 -1 -14 -2 2 -14 26
                                                -20 20 -27 -10 -11 -15 8 -31 11 -36 8 -6 -3 6 -13 26 -22 27 -11 37 -22 37
                                                -38 0 -33 -17 -36 -23 -4 -7 31 -10 32 -134 46 -49 6 -51 5 -46 -15 4 -13 -2
                                                -32 -16 -50 -11 -16 -21 -33 -21 -38 0 -5 -7 -23 -16 -40 -8 -18 -13 -36 -9
                                                -42 4 -6 -5 -10 -19 -10 -18 0 -33 11 -51 37 -33 49 -32 77 4 104 16 12 37 39
                                                46 60 19 41 53 58 120 60 17 0 39 4 50 9 11 5 31 7 45 3 14 -3 31 -6 37 -7z
                                                m573 -27 c0 -10 5 -21 10 -24 13 -8 13 -35 0 -35 -6 0 -15 11 -20 24 -5 13
                                                -17 29 -26 34 -9 5 -14 14 -10 20 10 16 46 2 46 -19z m-486 2 c3 -4 -6 -6 -19
                                                -3 -14 2 -25 6 -25 8 0 8 39 4 44 -5z m-1918 -38 c-10 -10 -19 5 -10 18 6 11
                                                8 11 12 0 2 -7 1 -15 -2 -18z m1904 -47 c0 -31 -32 -105 -37 -88 -3 7 0 27 6
                                                44 6 17 11 42 11 55 0 14 4 21 10 18 6 -3 10 -17 10 -29z m-204 -818 c-4 -464
                                                -8 -854 -9 -868 -2 -21 -7 -25 -31 -23 -16 1 -34 7 -39 12 -11 11 -20 193 -17
                                                344 0 63 -2 77 -15 77 -12 0 -15 -18 -16 -107 -1 -90 -3 -102 -11 -73 -11 39
                                                -14 78 -7 99 2 7 -1 15 -8 18 -7 3 -16 -12 -23 -37 -9 -33 -8 -44 5 -62 17
                                                -25 21 -123 5 -133 -5 -3 -10 -15 -10 -25 0 -26 -21 -36 -35 -17 -15 20 -7 77
                                                11 84 16 6 19 63 3 63 -19 0 7 215 30 245 4 6 14 33 21 60 8 28 23 65 33 83
                                                15 24 17 36 9 44 -20 20 5 39 34 26 20 -10 27 -8 38 8 17 22 12 32 -20 44 -13
                                                5 -24 14 -24 20 0 16 22 12 36 -7 23 -33 28 -3 6 40 -34 65 -72 237 -72 322 0
                                                30 -4 57 -10 60 -19 12 -22 -48 -7 -132 12 -63 13 -90 5 -100 -7 -9 -7 -25 0
                                                -55 6 -23 9 -44 6 -47 -9 -9 -33 35 -40 74 -3 22 -14 63 -24 90 -10 28 -21 74
                                                -24 104 -3 30 -9 58 -14 63 -11 11 26 88 51 107 33 24 61 60 64 84 2 12 10 40
                                                17 62 41 121 47 144 41 168 -5 17 1 43 17 76 12 28 25 51 27 51 2 0 1 -379 -3
                                                -842z m118 788 c-5 -28 -1 -41 22 -71 19 -25 30 -33 38 -25 16 16 23 12 30
                                                -15 3 -13 15 -29 25 -34 10 -6 30 -30 44 -54 14 -24 41 -54 60 -67 18 -12 41
                                                -36 50 -51 14 -25 19 -28 42 -19 22 8 29 6 55 -23 32 -35 32 -32 33 -262 0
                                                -82 -5 -123 -18 -160 -10 -27 -18 -59 -17 -70 1 -14 -13 -29 -43 -48 -25 -16
                                                -45 -37 -47 -50 -3 -19 -8 -21 -63 -18 -33 1 -61 4 -63 6 -2 2 2 13 8 25 7 14
                                                12 84 13 190 1 114 5 162 11 147 l9 -22 5 23 c5 30 -4 52 -21 52 -22 0 -34
                                                -41 -26 -90 4 -25 5 -102 2 -172 -5 -107 -9 -130 -25 -144 -10 -10 -18 -22
                                                -18 -28 0 -6 -16 -12 -35 -13 -26 -1 -35 2 -35 14 0 10 -6 14 -20 10 -18 -5
                                                -20 0 -20 46 0 55 8 61 12 8 1 -18 6 -35 11 -38 4 -3 6 30 2 74 -3 43 -2 109
                                                3 146 5 37 5 70 1 72 -10 7 -19 -21 -19 -62 0 -20 -2 -34 -5 -31 -3 3 -7 88
                                                -10 189 -3 101 -8 217 -11 257 -7 95 6 342 18 342 5 0 6 -15 2 -34z m-1864
                                                -33 c0 -19 -13 -16 -28 7 -17 28 -4 50 15 25 7 -11 13 -25 13 -32z m1375 17
                                                c3 -5 18 -11 33 -11 24 -2 24 -2 5 -6 -13 -2 -23 -12 -24 -21 0 -9 -3 -29 -5
                                                -44 -3 -21 -1 -28 11 -28 8 0 15 -4 15 -10 0 -13 -6 -13 -29 2 -29 18 -66 -12
                                                -97 -78 -23 -48 -25 -59 -14 -82 l12 -27 20 24 c16 20 21 22 28 11 12 -20 22
                                                -7 23 32 2 26 -2 33 -15 32 -10 -1 -18 1 -18 4 0 8 34 31 46 32 7 0 11 -7 10
                                                -16 -2 -26 22 -28 29 -2 4 13 23 40 41 61 19 20 34 43 34 50 0 6 9 23 19 36
                                                18 24 19 24 25 4 9 -29 91 -103 114 -103 26 0 33 -9 21 -29 -5 -9 -18 -45 -27
                                                -79 -16 -56 -20 -62 -31 -48 -9 11 -10 16 -2 16 6 0 11 9 11 20 0 11 -4 20
                                                -10 20 -5 0 -10 -7 -10 -15 0 -8 -4 -15 -10 -15 -16 0 -12 19 11 51 23 33 9
                                                39 -21 9 -24 -24 -26 -68 -5 -76 24 -10 17 -23 -10 -20 -39 4 -61 31 -74 91
                                                -11 47 -15 54 -29 46 -19 -10 -23 -79 -8 -113 6 -13 4 -18 -8 -18 -14 0 -15
                                                -4 -6 -21 7 -11 9 -23 6 -26 -8 -8 -26 7 -26 21 0 8 -7 19 -15 26 -20 16 -20
                                                1 -1 -45 8 -19 21 -35 28 -35 8 0 28 -15 45 -33 31 -33 31 -34 11 -46 -18 -11
                                                -20 -11 -14 4 7 18 -9 45 -26 45 -6 0 -8 -11 -6 -25 4 -19 1 -25 -11 -25 -10
                                                0 -21 -4 -27 -10 -17 -17 -85 1 -94 25 -10 26 -27 39 -50 40 -20 0 -24 38 -10
                                                93 8 34 8 47 -1 52 -6 4 -8 13 -4 19 4 7 1 19 -6 27 -17 21 5 59 58 95 48 33
                                                73 65 73 92 0 14 -5 18 -20 14 -22 -6 -28 8 -7 16 20 9 35 8 42 -3z m100 -20
                                                c3 -5 1 -10 -4 -10 -6 0 -11 5 -11 10 0 6 2 10 4 10 3 0 8 -4 11 -10z m-145
                                                -25 c0 -8 -4 -15 -10 -15 -5 0 -10 7 -10 15 0 8 5 15 10 15 6 0 10 -7 10 -15z
                                                m107 -1 c-3 -3 -12 -4 -19 -1 -8 3 -5 6 6 6 11 1 17 -2 13 -5z m-1002 -48 c61
                                                -28 130 -101 144 -152 53 -190 -69 -363 -260 -370 -184 -6 -317 169 -265 349
                                                45 157 234 242 381 173z m1005 10 c0 -11 -19 -15 -25 -6 -3 5 1 10 9 10 9 0
                                                16 -2 16 -4z m247 -11 c0 -8 -6 -16 -14 -19 -16 -7 -17 6 -1 22 15 15 15 15
                                                15 -3z m-1067 -115 c0 -5 -4 -10 -10 -10 -5 0 -10 5 -10 10 0 6 5 10 10 10 6
                                                0 10 -4 10 -10z m1920 0 c0 -5 -4 -10 -10 -10 -5 0 -10 5 -10 10 0 6 5 10 10
                                                10 6 0 10 -4 10 -10z m-1830 -35 c7 -9 20 -13 28 -10 37 14 59 -56 25 -80 -11
                                                -8 -17 -27 -17 -56 -1 -38 -5 -46 -28 -57 -16 -7 -28 -20 -28 -28 0 -8 -10
                                                -14 -25 -14 -14 0 -44 -12 -66 -26 -23 -14 -39 -22 -37 -17 56 113 61 130 62
                                                203 1 41 5 81 9 88 11 17 62 15 77 -3z m1820 -7 c0 -6 -6 -5 -15 2 -8 7 -15
                                                14 -15 16 0 2 7 1 15 -2 8 -4 15 -11 15 -16z m-2500 -208 c18 -34 10 -34 -25
                                                0 -30 29 -35 40 -35 81 0 32 6 53 18 65 16 17 17 14 24 -54 4 -40 12 -81 18
                                                -92z m1485 95 c15 -11 16 -14 5 -14 -19 0 -54 29 -63 53 -6 16 -5 16 15 -3 13
                                                -12 32 -28 43 -36z m55 29 c0 -2 -7 -4 -15 -4 -8 0 -15 4 -15 10 0 5 7 7 15 4
                                                8 -4 15 -8 15 -10z m246 -9 c4 -14 4 -29 0 -32 -3 -4 -6 1 -6 10 0 10 -4 17
                                                -10 17 -5 0 -10 7 -10 15 0 25 19 17 26 -10z m-301 -83 c-7 -7 -45 28 -57 53
                                                -7 12 3 7 26 -14 19 -19 34 -37 31 -39z m-637 -34 c4 -19 -27 -33 -41 -19 -7
                                                7 -6 16 3 26 15 18 34 15 38 -7z m942 12 c0 -5 -8 -10 -17 -10 -15 0 -16 2 -3
                                                10 19 12 20 12 20 0z m-1813 -40 c14 -11 29 -17 34 -15 4 3 18 -8 31 -26 13
                                                -17 40 -43 61 -59 l38 -28 -70 -12 c-83 -14 -131 -7 -131 20 0 10 -3 26 -7 35
                                                -5 14 -2 16 15 10 23 -7 29 4 13 21 -11 12 -25 74 -16 74 4 0 18 -9 32 -20z
                                                m809 -37 c-10 -10 -19 5 -10 18 6 11 8 11 12 0 2 -7 1 -15 -2 -18z m-121 3
                                                c38 -16 48 -31 64 -101 16 -70 1 -137 -43 -186 -19 -20 -40 -53 -47 -73 -7
                                                -20 -20 -38 -29 -41 -9 -3 -33 -20 -53 -39 -33 -30 -39 -32 -52 -19 -8 8 -15
                                                19 -15 24 0 5 -11 14 -25 19 -14 5 -25 14 -25 20 0 5 -7 10 -15 10 -8 0 -15
                                                -4 -15 -10 0 -18 -18 -10 -23 10 -3 11 -16 24 -30 29 -45 17 -67 57 -67 123 0
                                                66 13 88 54 88 14 0 28 5 31 10 8 13 61 13 86 0 20 -11 26 -45 9 -55 -5 -3
                                                -10 -14 -10 -23 1 -13 7 -10 26 12 14 15 27 26 30 24 2 -3 6 -37 8 -77 6 -115
                                                25 -112 22 3 -1 53 1 96 6 96 14 0 38 -59 38 -95 0 -19 5 -35 10 -35 19 0 11
                                                95 -10 117 -16 18 -17 22 -5 27 9 3 22 -5 31 -19 9 -14 23 -25 31 -25 10 0 6
                                                10 -12 34 -20 26 -32 33 -48 29 -72 -17 -67 -19 -67 25 0 23 6 46 13 52 10 9
                                                85 56 95 59 1 1 18 -5 37 -13z m1125 -6 c0 -5 -7 -10 -15 -10 -8 0 -15 5 -15
                                                10 0 6 7 10 15 10 8 0 15 -4 15 -10z m10 -36 c0 -8 -5 -12 -10 -9 -6 4 -8 11
                                                -5 16 9 14 15 11 15 -7z m-1614 -108 c42 -42 43 -68 4 -96 -24 -17 -28 -26
                                                -24 -50 6 -26 1 -32 -40 -61 -39 -28 -46 -38 -46 -66 0 -21 6 -36 15 -39 20
                                                -8 19 -38 -1 -55 -11 -9 -14 -22 -10 -42 l6 -29 -60 4 c-79 6 -92 19 -88 89
                                                l3 54 22 -35 c13 -19 23 -28 23 -20 0 8 -9 28 -20 45 -21 32 -36 105 -26 131
                                                5 14 9 13 26 -7 21 -26 26 -19 9 12 -12 23 7 88 29 102 8 6 11 18 8 32 -7 27
                                                2 35 59 52 63 18 75 15 111 -21z m698 12 c20 -32 10 -77 -15 -71 -25 7 -24 -1
                                                3 -37 27 -37 42 -39 34 -4 -6 22 -4 24 11 15 42 -22 62 -63 66 -136 1 -20 9
                                                -33 25 -40 26 -11 28 -21 7 -29 -8 -3 -35 8 -60 25 -70 47 -126 62 -211 57
                                                -51 -4 -74 -2 -71 6 2 6 19 14 38 19 19 4 49 13 67 18 25 8 35 7 48 -5 16 -17
                                                44 -22 44 -8 0 4 -9 13 -21 20 -20 13 -21 24 -5 63 5 12 0 18 -20 23 -21 6
                                                -33 1 -57 -21 -25 -23 -29 -24 -23 -8 4 11 10 34 13 50 4 17 15 42 27 58 26
                                                35 78 38 100 5z m-634 4 c0 -13 -12 -22 -22 -16 -10 6 -1 24 13 24 5 0 9 -4 9
                                                -8z m-287 -31 c15 -8 27 -18 27 -23 0 -18 -41 -88 -49 -84 -15 10 1 55 21 62
                                                21 6 16 19 -9 19 -9 0 -20 10 -24 23 -5 13 -6 22 -1 20 4 -2 19 -10 35 -17z
                                                m847 -90 c0 -5 -7 -14 -15 -21 -16 -14 -18 -10 -9 14 6 17 24 22 24 7z m1474
                                                -57 c4 -19 17 -51 28 -71 21 -35 21 -35 1 -29 -32 10 -35 -14 -16 -124 17 -94
                                                7 -294 -21 -437 -3 -15 3 -29 19 -41 13 -10 25 -32 27 -48 4 -34 23 -30 24 6
                                                1 15 -8 33 -23 46 l-25 22 13 108 c14 124 17 310 6 367 -6 26 -5 37 2 33 23
                                                -14 33 -97 32 -256 0 -175 -1 -170 51 -241 9 -14 8 -20 -6 -34 -10 -11 -14
                                                -25 -10 -37 3 -12 -1 -27 -13 -40 -18 -21 -18 -21 8 -15 l25 6 12 -162 c7 -89
                                                12 -179 12 -200 0 -20 11 -59 24 -85 30 -57 58 -230 54 -322 l-3 -65 -50 -7
                                                c-53 -8 -89 1 -138 35 -36 25 -45 48 -57 157 -5 49 -13 96 -16 104 -3 9 -1 16
                                                4 16 6 0 14 -9 17 -20 7 -21 35 -28 35 -9 0 6 -15 26 -33 44 -17 17 -37 43
                                                -44 56 -41 81 -113 285 -113 318 0 19 34 31 91 31 16 0 29 5 29 10 0 6 12 10
                                                26 10 29 0 94 36 94 51 0 5 -7 12 -16 16 -15 6 -31 -1 -89 -35 -59 -35 -91
                                                -21 -100 46 -10 71 -15 82 -36 82 -33 0 -42 44 -27 140 16 103 16 102 1 107
                                                -7 3 -13 -27 -18 -92 -10 -132 -10 -147 6 -159 10 -8 15 -36 16 -89 l1 -79
                                                -26 7 c-28 7 -41 21 -43 45 -1 21 -6 39 -23 85 -10 29 -12 54 -6 90 15 92 31
                                                260 26 280 -2 11 -5 28 -5 38 -1 9 -5 17 -11 17 -6 0 -10 -36 -11 -87 0 -49
                                                -5 -113 -10 -143 -17 -105 -22 -179 -12 -192 8 -10 33 -103 33 -121 0 -2 -18
                                                -1 -40 1 -36 4 -42 9 -56 40 -8 20 -17 62 -21 94 -3 32 -10 58 -14 58 -9 0
                                                -13 -14 -10 -40 1 -11 0 -12 -6 -3 -10 14 -9 61 2 113 7 34 7 34 -11 17 -16
                                                -15 -19 -31 -17 -114 2 -65 6 -99 15 -105 7 -5 19 -12 27 -17 23 -14 -7 -48
                                                -41 -47 l-29 1 5 218 c3 120 8 285 12 367 6 129 9 147 21 134 8 -8 23 -14 33
                                                -14 10 0 22 -5 25 -11 4 -5 12 -8 18 -6 7 2 22 0 34 -4 13 -5 25 -4 28 2 4 5
                                                11 7 16 4 5 -3 30 -8 57 -11 45 -4 48 -3 67 28 11 18 22 42 25 52 3 11 11 21
                                                19 24 10 3 11 0 1 -18 -8 -16 -9 -25 -1 -33 7 -7 12 -5 17 9 4 10 15 30 24 44
                                                9 14 23 48 30 75 7 28 15 54 17 58 9 15 31 -14 37 -49z m62 3 c3 -12 15 -40
                                                24 -62 23 -50 37 -107 21 -85 -9 12 -11 12 -16 -2 -4 -9 -2 -25 4 -35 15 -28
                                                41 -177 46 -268 6 -103 14 -155 27 -178 5 -10 7 -25 4 -34 -5 -12 -12 -9 -34
                                                14 -49 49 -52 61 -52 235 0 107 -5 181 -14 216 -8 28 -10 52 -5 52 16 0 10 35
                                                -16 86 -28 56 -35 115 -10 94 8 -6 17 -22 21 -33z m-2052 -69 c10 -51 20 -62
                                                44 -49 41 22 113 -33 120 -91 3 -27 -11 -38 -23 -18 -13 20 -55 11 -67 -15 -6
                                                -14 -14 -25 -17 -25 -15 1 -41 29 -41 43 0 29 -41 47 -106 47 -47 0 -63 4 -68
                                                16 -11 27 -7 33 27 36 28 3 32 7 35 34 3 26 10 34 40 46 45 18 48 17 56 -24z
                                                m616 -44 c124 -68 180 -228 125 -360 -22 -52 -91 -120 -147 -144 -98 -42 -234
                                                -24 -305 40 -65 59 -86 104 -91 195 -4 73 -1 90 21 137 27 61 92 122 160 150
                                                64 28 168 20 237 -18z m875 27 c3 -5 1 -12 -5 -16 -5 -3 -10 1 -10 9 0 18 6
                                                21 15 7z m5 -51 c0 -5 -4 -10 -10 -10 -5 0 -10 5 -10 10 0 6 5 10 10 10 6 0
                                                10 -4 10 -10z m193 -4 c4 -10 0 -12 -14 -9 -10 3 -16 9 -13 14 8 13 21 11 27
                                                -5z m84 -2 c12 -3 24 -12 27 -20 4 -11 -3 -13 -37 -8 -23 4 -46 11 -52 17 -7
                                                7 -6 8 2 3 6 -3 14 -2 18 4 7 11 12 12 42 4z m-489 -51 c-7 -16 -15 -32 -20
                                                -37 -4 -6 -8 -16 -8 -22 0 -19 -20 -67 -25 -62 -10 10 43 148 57 148 4 0 2
                                                -12 -4 -27z m-1307 -13 c11 -6 19 -21 19 -35 0 -13 4 -26 10 -30 22 -14 -39
                                                -95 -72 -95 -10 0 -18 -4 -18 -10 0 -5 9 -10 19 -10 11 0 23 5 26 10 8 13 25
                                                13 25 1 0 -14 -75 -91 -89 -91 -18 0 -63 -48 -56 -60 9 -15 25 -12 25 5 0 8
                                                12 22 28 32 15 9 38 26 51 37 l24 21 -6 -22 c-3 -13 -2 -23 2 -23 9 0 31 45
                                                31 63 0 7 4 18 9 26 8 12 12 12 25 2 12 -10 18 -8 32 14 16 24 16 27 0 44 -16
                                                17 -16 19 3 24 11 2 21 15 23 28 4 29 33 36 57 15 15 -14 17 -29 14 -94 -7
                                                -149 -13 -175 -46 -209 -22 -23 -40 -33 -62 -33 -17 0 -40 -7 -52 -15 -18 -13
                                                -24 -13 -54 2 -29 15 -31 18 -14 21 37 7 40 22 4 22 -38 0 -74 -21 -110 -63
                                                l-24 -28 0 44 c0 29 -6 50 -19 62 -14 14 -17 28 -13 60 4 23 0 58 -8 80 -11
                                                34 -11 44 2 68 12 25 19 28 44 23 39 -8 47 14 20 53 -27 37 -26 37 7 55 31 18
                                                115 21 143 6z m1512 -80 c3 -11 1 -23 -4 -26 -5 -3 -9 6 -9 20 0 31 6 34 13 6z
                                                m-1765 -18 c34 -4 39 -11 21 -29 -14 -14 -14 -61 0 -97 6 -16 9 -43 5 -62 -4
                                                -24 -1 -42 15 -67 25 -40 26 -62 7 -99 -17 -32 -11 -41 16 -27 32 17 35 -1 6
                                                -26 -17 -15 -26 -30 -22 -39 4 -11 0 -16 -14 -16 -12 0 -27 -9 -35 -21 -18
                                                -24 -22 -18 -32 39 -4 24 -13 46 -21 49 -15 6 -18 89 -5 178 l7 50 14 -45 c8
                                                -25 17 -47 20 -50 4 -3 10 -14 14 -24 4 -13 10 -16 17 -9 10 10 -21 79 -71
                                                158 -15 25 -18 42 -13 93 5 53 8 62 22 56 9 -4 31 -9 49 -12z m2444 -94 c-6
                                                -6 -14 9 -21 36 -16 63 -14 68 10 17 11 -26 16 -48 11 -53z m-939 57 c-3 -9
                                                -8 -14 -10 -11 -3 3 -2 9 2 15 9 16 15 13 8 -4z m-28 -100 c-18 -70 -19 -128
                                                -3 -154 9 -15 7 -23 -8 -44 -22 -31 -38 -30 -42 4 -2 13 -8 29 -14 36 -11 13
                                                13 98 53 188 28 62 35 47 14 -30z m1045 -29 c0 -3 -4 -8 -10 -11 -5 -3 -10 -1
                                                -10 4 0 6 5 11 10 11 6 0 10 -2 10 -4z m-38 -138 c-17 -17 -29 -1 -42 52 -20
                                                82 -3 96 27 22 17 -44 22 -67 15 -74z m-722 52 c0 -5 -2 -10 -4 -10 -3 0 -8 5
                                                -11 10 -3 6 -1 10 4 10 6 0 11 -4 11 -10z m-790 -50 c0 -5 -5 -10 -11 -10 -5
                                                0 -7 5 -4 10 3 6 8 10 11 10 2 0 4 -4 4 -10z m-420 -15 c36 -19 38 -38 8 -70
                                                -31 -32 -48 -34 -84 -8 -16 12 -43 25 -59 29 l-28 7 31 29 c37 32 85 37 132
                                                13z m1210 -5 c0 -11 -6 -20 -14 -20 -9 0 -12 7 -9 20 3 11 9 20 14 20 5 0 9
                                                -9 9 -20z m-1580 -20 c0 -11 -4 -20 -10 -20 -5 0 -10 9 -10 20 0 11 5 20 10
                                                20 6 0 10 -9 10 -20z m726 -6 c-3 -9 -6 -18 -6 -20 0 -2 -7 -4 -15 -4 -18 0
                                                -19 12 -3 28 17 17 31 15 24 -4z m669 -71 c-3 -23 -10 -43 -16 -43 -12 0 -12
                                                57 1 65 6 4 8 15 5 26 -4 10 -3 24 2 31 12 19 16 -25 8 -79z m-527 36 c33 -36
                                                40 -40 70 -34 25 5 39 2 53 -11 33 -30 23 -39 -44 -39 -97 -1 -162 -28 -225
                                                -94 -29 -31 -55 -66 -59 -78 -6 -25 -18 -30 -29 -12 -3 6 -19 9 -35 5 -16 -3
                                                -29 -4 -29 -2 0 14 32 75 41 78 6 2 14 28 18 58 l6 55 52 -3 c44 -2 54 1 63
                                                18 8 15 8 26 -1 42 -10 18 -8 24 11 40 36 29 67 23 108 -23z m-642 -9 c8 -7
                                                14 -9 14 -5 0 20 99 -80 120 -122 34 -65 35 -188 3 -248 -88 -165 -316 -201
                                                -448 -70 -53 54 -77 113 -76 191 1 170 123 280 299 270 40 -3 80 -10 88 -16z
                                                m204 -5 c10 -12 8 -21 -10 -50 -25 -40 -40 -44 -58 -15 -11 18 -9 24 15 50 33
                                                34 36 35 53 15z m160 -10 c7 -8 15 -43 17 -78 5 -56 3 -66 -14 -78 -11 -8 -26
                                                -31 -34 -53 -8 -21 -21 -41 -29 -44 -8 -3 -24 -15 -35 -27 -11 -12 -32 -26
                                                -47 -33 l-27 -11 -3 67 c-3 57 0 72 21 100 33 46 36 45 56 -30 2 -5 3 -12 4
                                                -18 0 -5 6 -10 12 -10 7 0 9 11 4 33 -4 17 -8 50 -9 71 -1 22 -7 41 -14 44
                                                -15 5 -15 21 1 55 10 22 19 27 48 27 20 0 42 -7 49 -15z m-794 -129 c10 -6 20
                                                -11 21 -12 2 0 -2 -26 -8 -56 -11 -53 -12 -55 -35 -44 -23 10 -24 16 -23 101
                                                0 84 1 88 13 56 7 -19 21 -39 32 -45z m664 50 c0 -11 -49 -64 -53 -59 -21 20
                                                13 76 39 66 8 -3 14 -6 14 -7z m910 -1 c17 -9 30 -20 30 -25 0 -16 31 -40 51
                                                -40 47 0 48 -8 49 -347 l0 -319 -48 -12 c-26 -7 -65 -17 -87 -23 -22 -6 -54
                                                -8 -72 -4 -29 5 -32 10 -39 52 -4 26 -2 77 4 113 32 183 34 190 53 190 5 0 9
                                                -16 9 -35 0 -26 4 -35 16 -35 14 0 16 8 10 47 -3 25 -14 55 -24 66 -13 15 -17
                                                39 -18 116 -2 112 14 271 28 271 5 0 22 -7 38 -15z m547 -27 c-3 -7 -5 -2 -5
                                                12 0 14 2 19 5 13 2 -7 2 -19 0 -25z m-862 -12 c102 -48 155 -132 155 -246 0
                                                -154 -115 -269 -270 -270 -151 0 -270 118 -270 269 0 191 213 328 385 247z
                                                m872 -48 c-3 -8 -6 -5 -6 6 -1 11 2 17 5 13 3 -3 4 -12 1 -19z m-81 -24 c27
                                                -15 36 -32 73 -143 24 -69 53 -148 66 -176 13 -27 26 -66 30 -85 3 -19 9 -43
                                                11 -52 10 -36 -95 -16 -148 28 -46 38 -64 38 -116 6 -54 -34 -147 -67 -162
                                                -57 -10 6 -15 476 -6 486 3 2 53 5 113 7 85 2 115 -1 139 -14z m-2076 -84 c0
                                                -5 -4 -10 -10 -10 -5 0 -10 5 -10 10 0 6 5 10 10 10 6 0 10 -4 10 -10z m865
                                                -77 c0 -83 -6 -98 -24 -66 -11 20 -27 11 -17 -9 25 -48 34 -59 41 -48 5 8 16
                                                -3 32 -29 22 -37 23 -44 11 -82 -12 -40 -54 -79 -86 -79 -7 0 -29 -12 -48 -26
                                                -30 -24 -34 -24 -40 -9 -4 9 -2 43 3 74 14 75 -6 115 -79 160 -27 16 -38 30
                                                -38 46 0 83 83 116 115 47 10 -23 25 -30 25 -12 0 6 5 10 11 10 8 0 7 -5 -2
                                                -16 -10 -12 -10 -20 0 -35 13 -22 6 -59 -12 -59 -7 0 -6 -4 2 -12 11 -10 14
                                                -10 18 0 3 6 9 12 15 12 7 0 8 -21 4 -60 -9 -75 7 -79 22 -6 11 56 4 104 -19
                                                132 -6 7 -8 21 -5 30 4 9 -1 27 -9 41 -13 19 -13 28 -4 46 16 30 29 38 59 35
                                                24 -3 25 -5 25 -85z m-847 7 c2 -14 11 -33 19 -42 15 -17 10 -78 -7 -78 -4 0
                                                -10 -9 -13 -20 -3 -11 -12 -20 -21 -20 -14 0 -16 15 -16 96 0 86 2 95 18 92 9
                                                -2 18 -14 20 -28z m1769 -17 c-3 -10 -5 -4 -5 12 0 17 2 24 5 18 2 -7 2 -21 0
                                                -30z m-1686 -106 c-10 -9 -11 -8 -5 6 3 10 9 15 12 12 3 -3 0 -11 -7 -18z
                                                m549 -12 c33 -17 80 -74 80 -98 0 -24 -21 -68 -48 -101 -16 -20 -22 -37 -17
                                                -53 4 -16 1 -23 -9 -23 -21 0 -35 -30 -29 -61 4 -23 -2 -31 -44 -60 -60 -41
                                                -62 -45 -56 -86 6 -36 -11 -47 -20 -13 -3 12 -14 20 -26 20 -14 0 -21 6 -21
                                                19 0 11 -13 29 -30 41 -16 12 -30 28 -30 35 0 10 -16 15 -52 17 -43 2 -53 7
                                                -57 23 -2 11 -12 26 -22 33 -22 15 -26 80 -8 113 8 16 7 25 -4 37 -10 12 -12
                                                24 -7 38 10 27 26 38 35 24 9 -15 25 -12 25 5 0 21 64 20 101 -2 16 -10 29
                                                -20 29 -24 0 -7 -38 -47 -69 -72 -23 -18 -24 -38 -3 -45 7 -2 12 3 12 11 0 8
                                                20 31 45 52 40 32 46 34 52 18 11 -28 7 -81 -7 -98 -17 -20 -5 -32 15 -15 13
                                                10 15 9 15 -9 0 -11 5 -21 10 -21 6 0 10 11 10 25 0 14 5 25 10 25 6 0 10 -9
                                                10 -20 0 -11 5 -20 10 -20 13 0 13 23 -2 55 -12 26 -28 34 -28 13 0 -25 -14 4
                                                -16 35 -2 17 -5 43 -6 57 -2 21 2 26 24 28 18 2 31 -4 42 -19 20 -29 33 -17
                                                18 16 -9 19 -19 25 -42 25 -39 0 -38 16 2 57 35 36 63 41 108 18z m1150 -45
                                                c0 -27 -4 -40 -14 -40 -9 0 -12 9 -9 28 11 64 23 71 23 12z m-1676 5 c3 -8 12
                                                -15 20 -15 24 0 36 -33 36 -95 0 -79 -22 -123 -66 -131 -21 -4 -40 -2 -49 6
                                                -8 6 -30 10 -50 8 l-37 -3 -2 53 c-1 38 5 63 22 95 13 24 20 32 17 17 -25 -95
                                                -7 -114 21 -22 25 81 72 128 88 87z m-124 -25 c0 -5 -4 -10 -10 -10 -5 0 -10
                                                5 -10 10 0 6 5 10 10 10 6 0 10 -4 10 -10z m1472 -55 c-18 -150 -26 -177 -55
                                                -192 -26 -13 -29 -18 -23 -51 9 -59 -6 -69 -42 -28 -28 32 -30 39 -21 66 14
                                                39 6 63 -10 32 -21 -39 -16 -80 12 -110 29 -31 47 -72 47 -108 0 -16 4 -23 11
                                                -18 7 4 9 22 6 45 -3 22 -4 39 -2 39 20 0 35 -17 35 -40 0 -66 -11 -90 -53
                                                -110 -25 -12 -45 -16 -56 -11 -9 5 -22 6 -28 4 -17 -6 -16 8 2 43 17 33 20
                                                122 5 176 -6 20 -26 60 -46 89 -26 40 -32 54 -22 60 19 12 45 11 68 -3 16 -10
                                                25 -10 47 4 22 13 29 25 31 57 2 30 10 46 29 61 33 26 69 23 65 -5z m305 -17
                                                c-3 -7 -5 -2 -5 12 0 14 2 19 5 13 2 -7 2 -19 0 -25z m323 -38 c18 -16 36 -28
                                                40 -25 5 3 11 1 14 -4 3 -5 29 -12 57 -16 31 -4 48 -11 46 -19 -4 -11 -70 -11
                                                -97 0 -20 9 -23 10 -105 23 -57 8 -80 8 -119 -4 -57 -17 -76 -19 -76 -6 0 6
                                                27 15 60 22 39 8 68 20 83 35 30 32 58 30 97 -6z m-971 -54 c54 -28 106 -82
                                                129 -135 8 -20 15 -65 16 -101 0 -78 -25 -138 -81 -191 -62 -60 -98 -74 -188
                                                -74 -69 0 -86 4 -126 27 -95 56 -141 134 -142 238 0 105 55 193 148 236 71 34
                                                177 33 244 0z m1774 11 c11 -7 16 -22 14 -37 -4 -24 -7 -25 -93 -27 -70 -2
                                                -91 0 -100 12 -9 12 -20 13 -64 5 -74 -14 -100 -13 -100 5 0 12 15 15 78 15
                                                84 0 191 16 207 31 13 13 38 11 58 -4z m-877 -27 c5 -5 32 -11 59 -13 28 -2
                                                57 -6 65 -10 8 -3 39 -11 68 -17 45 -10 53 -15 49 -31 -3 -11 -1 -22 4 -25 16
                                                -10 9 -24 -11 -24 -13 0 -28 12 -38 30 -14 24 -24 30 -52 30 -44 0 -81 -10
                                                -75 -20 3 -4 -2 -13 -10 -20 -8 -7 -15 -23 -15 -36 0 -15 -6 -24 -15 -24 -8 0
                                                -15 -7 -15 -16 0 -14 -8 -15 -57 -9 -32 4 -68 16 -82 26 -14 11 -36 19 -50 17
                                                -26 -3 -26 -2 -26 61 0 61 1 64 25 66 14 2 32 -4 42 -12 12 -11 18 -11 24 -2
                                                5 8 3 10 -7 4 -8 -5 -11 -4 -6 1 23 25 106 41 123 24z m-1963 -70 c16 -16 35
                                                -30 42 -30 9 0 13 -10 12 -27 -2 -34 22 -41 58 -17 23 15 26 23 22 50 -4 24
                                                -1 34 10 39 9 3 19 2 23 -2 3 -4 21 -27 39 -50 18 -24 41 -43 52 -43 28 0 54
                                                -56 40 -86 -6 -13 -17 -24 -25 -24 -8 0 -25 -17 -37 -39 -20 -36 -25 -39 -76
                                                -45 -84 -10 -165 -60 -213 -133 -8 -13 -17 -19 -21 -15 -8 7 -11 135 -10 323
                                                1 100 2 107 24 117 31 15 29 15 60 -18z m2633 20 c6 -6 52 -13 104 -16 103 -6
                                                110 -8 110 -31 0 -14 -11 -15 -82 -10 -46 4 -97 8 -115 11 -21 2 -34 -1 -37
                                                -10 -8 -21 -38 -16 -70 12 -15 14 -27 26 -25 28 3 2 51 14 100 25 3 0 10 -4
                                                15 -9z m-1993 -27 c-7 -2 -21 -2 -30 0 -10 3 -4 5 12 5 17 0 24 -2 18 -5z
                                                m1488 -41 c6 -16 5 -22 -6 -22 -9 0 -12 6 -9 15 4 8 1 15 -5 15 -6 0 -11 5
                                                -11 11 0 18 23 4 31 -19z m-731 -18 c0 -7 11 -21 25 -30 20 -13 31 -15 48 -6
                                                12 6 42 14 67 18 25 3 54 13 65 20 28 20 35 17 35 -14 0 -49 -24 -61 -115 -56
                                                -44 2 -99 6 -122 9 l-41 6 3 42 c2 23 4 44 4 46 2 9 31 -23 31 -35z m1130 -40
                                                c-21 -37 -30 -29 -30 27 l0 52 21 -27 c19 -24 20 -30 9 -52z m253 37 l67 -1 0
                                                -55 0 -56 -30 16 c-16 8 -41 15 -56 15 -31 0 -102 -53 -115 -86 -5 -15 -17
                                                -24 -29 -24 -42 0 -58 -17 -53 -55 3 -19 0 -35 -5 -35 -12 0 -20 32 -28 109
                                                -6 51 -4 64 17 98 13 21 24 42 24 47 0 5 7 10 15 12 8 1 25 4 37 6 12 2 26 7
                                                30 11 3 4 18 5 32 3 14 -2 56 -5 94 -5z m-578 -28 c-9 -24 -9 -23 0 -60 4 -17
                                                18 -42 31 -54 13 -12 24 -28 24 -35 0 -6 7 -17 15 -24 20 -16 20 -44 0 -37 -8
                                                4 -17 2 -21 -4 -10 -17 -34 11 -34 42 0 34 -5 38 -76 49 -64 11 -59 8 -68 38
                                                -6 18 -3 22 12 22 11 0 35 18 53 39 36 41 77 56 64 24z m-1595 -7 c0 -7 6 -19
                                                14 -25 7 -6 16 -37 20 -68 7 -64 31 -109 89 -170 23 -24 39 -44 36 -45 -2 -2
                                                -29 -15 -59 -30 -48 -23 -65 -26 -130 -23 -69 3 -77 5 -95 31 -71 100 -173
                                                171 -224 157 -12 -3 -21 -1 -21 6 0 6 5 11 10 11 6 0 15 11 20 25 12 31 33 32
                                                101 5 34 -14 55 -18 62 -11 16 16 69 -29 63 -54 -6 -25 67 -101 123 -128 40
                                                -20 41 -20 41 -7 0 5 -17 21 -37 34 -21 14 -53 39 -72 55 l-34 31 42 0 c22 0
                                                41 5 41 10 0 6 -13 10 -29 10 -39 0 -89 44 -72 63 8 10 8 22 0 46 -6 17 -9 38
                                                -6 45 13 34 117 62 117 32z m1651 -10 c10 -13 38 -28 63 -35 54 -13 136 -15
                                                136 -2 0 5 11 8 25 7 29 -1 29 2 11 -41 -15 -35 -15 -35 -81 -35 -49 0 -67 -4
                                                -71 -15 -9 -22 -16 -19 -67 29 -39 36 -47 49 -47 80 0 42 5 44 31 12z m-157
                                                -10 c-11 -8 -31 -16 -44 -18 -14 -1 -24 -7 -23 -13 1 -5 -3 -16 -9 -22 -10
                                                -12 -4 -17 15 -14 4 0 7 -3 7 -8 0 -21 -23 -21 -66 -1 -39 19 -49 20 -74 10
                                                -24 -10 -30 -19 -30 -44 -1 -26 -2 -28 -11 -13 -13 23 -2 80 14 71 8 -5 8 -2
                                                0 7 -23 24 -14 28 56 22 52 -4 79 -2 103 9 64 30 95 37 62 14z m-445 -262
                                                c-10 -34 -16 -40 -35 -36 -14 2 -25 14 -29 30 -5 22 0 32 29 58 20 18 36 37
                                                36 43 0 17 -6 14 -37 -16 -23 -23 -28 -25 -31 -11 -6 29 18 98 38 111 12 7 20
                                                23 20 38 0 14 3 29 8 33 13 13 14 -206 1 -250z m134 226 c3 -12 14 -20 26 -20
                                                12 0 21 -5 21 -11 0 -6 -16 -9 -37 -7 -33 3 -38 7 -41 31 -4 32 23 39 31 7z
                                                m-297 -47 c-8 -57 16 -59 33 -2 11 38 15 40 39 34 15 -4 28 -8 29 -9 2 -1 -6
                                                -20 -17 -41 -11 -22 -20 -35 -20 -31 0 5 -7 3 -15 -4 -9 -8 -12 -18 -6 -27 4
                                                -8 5 -31 2 -52 -4 -20 -6 -43 -6 -51 0 -8 -8 -21 -18 -29 -17 -12 -17 -15 -3
                                                -30 9 -10 17 -35 19 -56 2 -41 1 -42 -77 -47 -22 -1 -55 -13 -75 -27 -31 -21
                                                -48 -25 -120 -25 -109 -1 -121 12 -62 71 38 37 58 51 79 53 17 2 56 48 72 86
                                                10 23 23 45 29 48 6 4 11 16 11 27 0 12 10 29 23 40 l22 19 -23 6 c-18 5 -22
                                                12 -18 28 3 11 6 29 6 39 0 12 8 17 29 17 17 0 32 4 36 10 3 5 13 6 21 3 13
                                                -5 15 -15 10 -50z m244 -5 c0 -49 -5 -47 -14 5 -4 23 -3 37 4 37 5 0 10 -19
                                                10 -42z m1082 11 c17 -9 19 -17 13 -56 -5 -32 -2 -51 9 -68 20 -31 21 -85 2
                                                -85 -7 0 -21 10 -29 23 -13 21 -24 24 -84 25 -71 1 -103 -14 -103 -47 -1 -16
                                                -33 -61 -44 -61 -3 0 -6 11 -6 24 0 14 -4 28 -10 31 -17 10 -11 32 10 38 16 4
                                                20 14 20 46 l0 41 40 0 c38 0 40 2 40 29 0 54 85 90 142 60z m-840 -27 c10 -8
                                                28 -12 43 -10 24 5 26 3 23 -26 -3 -30 -4 -31 -48 -28 -39 3 -49 -1 -68 -23
                                                -29 -33 -20 -46 11 -17 25 23 52 28 62 12 19 -31 65 3 65 49 0 25 23 32 75 23
                                                35 -6 40 -11 46 -41 8 -38 23 -51 60 -51 24 0 27 -5 34 -46 4 -30 15 -54 30
                                                -68 27 -25 40 -103 25 -152 -4 -16 -9 -22 -9 -14 -1 7 -9 41 -18 73 -22 73
                                                -68 123 -149 163 -77 37 -185 40 -251 6 -55 -28 -107 -74 -134 -119 -32 -51
                                                -44 -23 -25 59 7 35 14 72 13 83 -3 77 4 115 22 124 13 7 23 6 35 -2 15 -11
                                                16 -17 5 -40 -10 -23 -10 -30 5 -46 36 -40 85 -27 73 19 -3 12 0 20 8 20 19 0
                                                35 24 26 38 -4 7 -15 10 -24 6 -22 -8 -22 12 0 24 19 11 40 6 65 -16z m469
                                                -37 c18 3 35 8 39 10 4 2 12 -21 19 -53 25 -118 53 -183 91 -209 75 -51 104
                                                -74 151 -122 27 -28 44 -53 39 -56 -17 -10 -113 -7 -143 4 -16 6 -39 11 -53
                                                11 -13 0 -32 4 -42 9 -9 4 -30 15 -47 23 -36 19 -93 33 -118 29 -16 -2 -17 3
                                                -11 33 3 20 3 44 -2 53 -4 10 -8 40 -10 66 -2 38 1 47 11 43 25 -9 26 12 3 28
                                                -20 14 -21 19 -10 36 7 12 10 25 7 30 -4 6 2 10 12 10 15 0 13 4 -10 25 -36
                                                35 -34 45 7 34 19 -5 49 -7 67 -4z m-577 -31 c4 -9 4 -19 2 -21 -8 -8 -26 8
                                                -26 23 0 19 16 18 24 -2z m-1549 -30 c61 -33 88 -60 120 -124 45 -90 25 -217
                                                -46 -290 -50 -51 -83 -67 -166 -82 -66 -11 -71 -10 -128 16 -75 34 -111 68
                                                -141 131 -58 121 -13 264 107 340 42 27 62 32 144 34 48 1 71 -5 110 -25z
                                                m1006 3 c-13 -13 -26 -3 -16 12 3 6 11 8 17 5 6 -4 6 -10 -1 -17z m-74 -23
                                                c10 -22 9 -28 -9 -46 -14 -14 -23 -17 -30 -10 -7 7 -16 7 -28 0 -10 -6 -26 -8
                                                -36 -4 -18 7 -17 9 6 28 14 11 25 25 25 31 0 10 29 25 50 26 6 1 15 -11 22
                                                -25z m48 -24 c3 -5 1 -10 -4 -10 -6 0 -11 5 -11 10 0 6 2 10 4 10 3 0 8 -4 11
                                                -10z m435 -20 c0 -5 -7 -7 -15 -4 -10 4 -15 0 -15 -11 0 -9 5 -13 10 -10 6 3
                                                10 -3 10 -14 0 -14 -5 -19 -15 -15 -8 4 -15 1 -15 -5 0 -6 5 -11 11 -11 6 0 8
                                                -8 5 -18 -3 -10 3 -34 13 -55 21 -41 13 -47 -29 -17 -25 18 -28 25 -24 63 11
                                                101 13 107 39 107 14 0 25 -4 25 -10z m406 -14 c55 -26 114 -90 133 -145 15
                                                -46 14 -155 -2 -194 -35 -83 -127 -145 -226 -154 -64 -6 -128 8 -156 34 -11
                                                10 -31 25 -45 34 -14 9 -37 38 -50 65 -21 39 -25 62 -25 128 0 75 2 85 34 132
                                                75 114 217 156 337 100z m572 -4 c5 -32 47 -27 46 6 0 15 5 22 18 22 10 0 18
                                                -4 18 -9 0 -6 14 -18 30 -28 24 -14 30 -24 30 -50 0 -24 -5 -33 -17 -34 -57
                                                -4 -70 -9 -93 -36 -21 -25 -28 -28 -45 -19 -44 24 -84 60 -77 70 3 6 5 19 4
                                                29 -3 13 4 17 27 17 37 0 48 15 21 30 -25 13 -16 32 13 28 14 -2 23 -11 25
                                                -26z m-1112 -22 c22 0 17 -17 -7 -23 -26 -7 -22 -40 6 -46 17 -3 18 -1 6 13
                                                -12 14 -11 16 8 16 34 0 29 -46 -6 -53 -37 -7 -47 5 -49 59 -1 36 1 44 13 40
                                                8 -3 21 -6 29 -6z m-466 -9 c0 -12 -20 -25 -27 -18 -7 7 6 27 18 27 5 0 9 -4
                                                9 -9z m114 -4 c3 4 6 1 6 -5 0 -7 -6 -12 -13 -12 -7 0 -26 -13 -42 -30 -33
                                                -35 -45 -38 -45 -11 0 10 9 21 20 24 12 3 20 14 20 26 0 18 3 19 24 11 13 -5
                                                27 -6 30 -3z m-157 -53 c26 -19 33 -32 33 -58 0 -19 9 -45 22 -61 20 -25 25
                                                -27 70 -22 47 6 51 5 91 -34 l42 -40 -32 6 c-26 5 -37 2 -56 -17 -13 -13 -26
                                                -30 -29 -38 -3 -10 -21 -14 -62 -14 -51 1 -59 -1 -69 -23 -15 -34 -80 -45
                                                -189 -32 -60 7 -88 67 -53 113 9 12 12 29 9 40 -8 27 -44 66 -60 66 -24 0 -24
                                                18 0 34 20 12 31 13 55 5 43 -15 49 -33 41 -109 -6 -50 -4 -68 6 -76 8 -6 14
                                                -16 14 -22 0 -9 70 -24 79 -16 9 8 -13 24 -33 24 -27 0 -38 27 -29 71 l5 29
                                                49 -26 c38 -21 62 -27 120 -28 50 -1 74 3 77 12 3 9 -14 12 -62 12 -50 0 -78
                                                6 -114 24 -62 31 -98 61 -85 69 6 4 22 -2 35 -13 31 -24 78 -37 78 -21 0 6 -8
                                                14 -17 18 -35 13 -72 44 -67 57 3 7 -2 16 -10 19 -21 8 -20 19 5 51 28 36 89
                                                36 136 0z m-233 10 c9 -4 16 -17 15 -33 0 -15 -3 -20 -6 -11 -3 8 -12 23 -21
                                                33 -16 18 -13 21 12 11z m-205 -19 c16 -8 34 -28 41 -46 13 -29 12 -33 -9 -50
                                                -32 -26 -60 -24 -71 6 -8 22 -12 24 -35 13 -30 -14 -35 -43 -5 -33 15 5 18 3
                                                14 -9 -4 -11 4 -19 27 -29 l34 -13 -35 -12 c-62 -22 -101 -75 -65 -88 39 -15
                                                0 -80 -70 -115 l-44 -22 -21 24 c-27 32 -19 90 20 140 34 42 55 95 65 163 8
                                                48 19 60 74 77 39 11 49 10 80 -6z m148 9 c-3 -3 -12 -4 -19 -1 -8 3 -5 6 6 6
                                                11 1 17 -2 13 -5z m2006 -72 c16 2 21 9 20 26 -5 42 24 24 31 -20 8 -52 0 -61
                                                -50 -50 -46 9 -68 48 -43 78 13 16 14 15 17 -10 3 -22 8 -27 25 -24z m-1313
                                                -22 c-14 -11 -29 -20 -34 -20 -7 0 -32 -18 -84 -61 -9 -8 -20 -6 -39 6 l-26
                                                18 38 18 c21 10 45 25 54 32 9 7 32 14 51 16 19 2 37 5 39 7 2 2 9 4 15 4 6 0
                                                0 -9 -14 -20z m1336 -40 c23 0 24 -3 24 -61 0 -56 -2 -60 -20 -54 -31 10 -44
                                                -4 -25 -25 11 -12 13 -20 6 -25 -15 -8 -31 3 -31 21 0 25 -44 13 -48 -13 -2
                                                -14 2 -23 10 -24 7 0 -7 -8 -32 -19 -25 -10 -48 -15 -52 -12 -3 4 -10 23 -15
                                                42 -10 37 -42 52 -67 31 -11 -9 -15 -3 -19 26 -4 20 -4 39 -1 42 3 3 27 -2 53
                                                -12 49 -17 125 -21 171 -8 33 9 40 55 11 73 -25 15 -28 33 -5 24 9 -3 27 -6
                                                40 -6z m-2113 -46 c9 -44 -4 -84 -28 -84 -8 0 -15 -4 -15 -10 0 -17 29 -11 51
                                                11 18 18 20 29 16 64 -10 66 37 89 82 41 23 -24 23 -25 7 -86 -20 -80 -34
                                                -101 -93 -135 -26 -15 -55 -34 -64 -42 -9 -8 -39 -16 -65 -18 -27 -2 -60 -7
                                                -74 -12 -45 -16 -108 -4 -94 18 3 5 22 18 42 28 65 34 102 76 102 115 0 27 6
                                                40 25 52 14 9 25 22 25 29 0 7 7 15 15 19 8 3 20 17 25 32 14 35 33 26 43 -22z
                                                m1757 10 c41 -17 45 -34 7 -34 -12 0 -30 12 -40 25 -21 29 -20 30 33 9z m-40
                                                -36 c0 -5 -6 -7 -12 -4 -7 3 -21 9 -30 12 -10 4 -18 10 -18 15 0 4 14 3 30 -2
                                                17 -6 30 -15 30 -21z m-2500 -9 c0 -10 5 -19 10 -19 17 0 11 -14 -10 -28 -19
                                                -11 -20 -10 -20 34 0 27 4 43 10 39 6 -3 10 -15 10 -26z m670 1 c0 -5 -10 -15
                                                -22 -21 -23 -12 -23 -12 -4 10 21 23 26 26 26 11z m1754 4 c24 -9 19 -20 -20
                                                -43 -20 -12 -38 -30 -41 -41 -3 -11 -10 -20 -15 -20 -5 0 -8 4 -6 8 2 4 12 29
                                                23 55 20 47 29 53 59 41z m176 -59 c4 -32 9 -41 28 -43 13 -2 25 3 28 12 8 20
                                                24 21 24 1 0 -9 7 -27 16 -41 22 -32 12 -42 -15 -15 -12 12 -26 21 -32 21 -21
                                                0 -50 -22 -45 -35 3 -9 -9 -15 -40 -20 -43 -6 -53 -25 -13 -25 10 0 19 -4 19
                                                -10 0 -5 -7 -10 -15 -10 -8 0 -15 -7 -15 -15 0 -10 11 -15 38 -16 l37 -1 -39
                                                -9 c-35 -8 -43 -7 -65 15 -14 13 -38 26 -54 30 -45 11 -67 40 -67 89 0 45 12
                                                62 59 87 21 11 26 9 46 -16 25 -32 40 -27 49 17 5 25 10 30 28 27 19 -2 24
                                                -11 28 -43z m320 -38 c0 -26 -6 -36 -25 -45 -29 -13 -95 -16 -95 -4 0 7 37 25
                                                76 36 12 4 24 16 27 26 8 31 17 24 17 -13z m-575 -46 c-8 -13 -35 -15 -35 -2
                                                0 5 8 11 18 13 21 5 26 2 17 -11z m449 -26 c11 -8 29 -15 41 -15 12 0 30 7 41
                                                15 36 27 44 19 44 -43 0 -32 -5 -63 -12 -70 -14 -14 -136 -16 -158 -2 -12 8
                                                -10 10 10 10 40 0 70 11 70 25 0 13 -54 28 -135 38 -19 3 -10 5 25 7 33 2 44
                                                5 28 7 -34 5 -36 16 -5 31 29 14 29 14 51 -3z m-429 -14 c7 -12 -32 -34 -45
                                                -26 -5 3 -11 2 -14 -3 -7 -11 -60 -14 -87 -4 l-23 9 29 15 c33 18 131 23 140
                                                9z m-1525 -31 c-6 -12 -9 -32 -6 -45 5 -18 0 -25 -24 -35 -37 -15 -45 -14 -45
                                                7 0 9 -8 21 -18 27 -15 9 -22 7 -37 -12 -10 -12 -25 -22 -34 -22 -14 0 -14 3
                                                -4 20 7 11 22 23 33 26 23 6 103 40 125 53 21 12 24 6 10 -19z m1158 -27 c-19
                                                -21 -24 -22 -26 -8 -6 28 5 44 28 38 l21 -6 -23 -24z m139 -3 c14 -11 32 -20
                                                39 -20 27 0 13 -15 -33 -37 -47 -22 -72 -21 -54 1 19 23 -4 39 -48 33 -23 -3
                                                -39 -1 -35 4 3 5 16 9 30 9 14 0 27 7 30 15 8 21 41 19 71 -5z m183 0 c0 -9
                                                -105 -11 -128 -3 -14 5 5 8 53 9 41 0 75 -3 75 -6z m120 -4 c0 -3 -4 -8 -10
                                                -11 -5 -3 -10 -1 -10 4 0 6 5 11 10 11 6 0 10 -2 10 -4z m340 -6 c-35 -11
                                                -151 -11 -125 0 11 5 49 8 85 8 47 0 58 -2 40 -8z m-392 -23 c5 -24 -15 -21
                                                -28 4 -10 18 -9 20 7 17 10 -2 19 -11 21 -21z m287 -7 c18 -8 17 -9 -7 -9 -16
                                                -1 -28 4 -28 9 0 12 8 12 35 0z"/>
            <g>
                <path d="M1598 3919 c-24 -13 -23 -25 3 -32 13 -4 22 0 26 11 4 9 11 20 17 24
                                                17 12 -27 9 -46 -3z"/>
            </g>
            <g>
                <path d="M2350 3376 c0 -13 43 -76 52 -76 12 0 0 40 -20 63 -14 16 -32 23 -32
                                                13z"/>
            </g>
            <g>
                <path d="M2490 3320 c0 -5 5 -10 10 -10 6 0 10 5 10 10 0 6 -4 10 -10 10 -5 0
                                                -10 -4 -10 -10z"/>
            </g>
            <g>
                <path d="M2320 3104 c0 -14 3 -14 15 -4 8 7 15 14 15 16 0 2 -7 4 -15 4 -8 0
                                                -15 -7 -15 -16z"/>
            </g>
            <g>
                <path d="M1703 3068 c-5 -7 -8 -35 -5 -61 3 -37 7 -45 17 -37 10 9 14 -18 16
                                                -138 3 -109 8 -154 18 -166 23 -28 32 -4 20 55 -6 30 -13 114 -15 188 -3 115
                                                -6 137 -22 153 -15 15 -21 16 -29 6z"/>
            </g>
            <g>
                <path d="M1610 2923 c1 -61 42 -204 56 -191 3 4 -13 94 -31 176 -5 20 -25 32
                                                -25 15z"/>
            </g>
            <g>
                <path d="M1963 2945 c-15 -16 -17 -35 -5 -35 10 0 42 33 42 43 0 12 -25 7 -37
                                                -8z"/>
            </g>
            <g>
                <path d="M2276 2918 c-4 -13 -13 -110 -20 -213 -5 -88 -18 -139 -39 -162 -22
                                                -25 -41 -31 -34 -10 2 6 0 21 -6 32 -6 11 -10 32 -8 48 4 41 -16 33 -24 -10
                                                -4 -24 -3 -39 4 -41 6 -2 11 -21 11 -43 0 -49 15 -50 58 -6 44 46 52 76 67
                                                267 3 41 8 92 11 113 4 24 2 37 -5 37 -7 0 -13 -6 -15 -12z"/>
            </g>
            <g>
                <path d="M1973 2874 c-3 -8 -1 -20 6 -27 8 -8 11 -8 11 0 0 6 3 18 6 27 3 9 1
                                                16 -5 16 -7 0 -14 -7 -18 -16z"/>
            </g>
            <g>
                <path d="M1979 2819 c-17 -110 -12 -309 9 -309 9 0 9 296 0 306 -5 4 -8 5 -9
                                                3z"/>
            </g>
            <g>
                <path d="M1300 3020 c0 -11 5 -20 10 -20 6 0 10 9 10 20 0 11 -4 20 -10 20 -5
                                                0 -10 -9 -10 -20z"/>
            </g>
            <g>
                <path d="M1440 3008 c0 -18 18 -34 28 -24 3 4 -2 14 -11 23 -16 16 -17 16 -17
                                                1z"/>
            </g>
            <g>
                <path d="M1420 2994 c0 -14 27 -50 33 -44 3 3 -3 16 -13 30 -11 14 -20 20 -20
                                                14z"/>
            </g>
            <g>
                <path d="M351 3175 l-30 -65 -70 0 c-39 0 -71 -2 -71 -5 0 -9 65 -64 83 -70
                                                23 -8 22 -24 -8 -97 -14 -34 -23 -63 -21 -66 3 -2 32 15 65 37 33 23 64 41 68
                                                41 5 0 35 -20 68 -45 33 -25 63 -45 68 -45 11 0 8 34 -7 71 -7 19 -17 48 -20
                                                65 -7 29 -4 33 44 64 56 36 65 58 23 57 -16 -1 -49 0 -75 1 l-47 2 -11 55 c-6
                                                30 -15 57 -20 60 -4 3 -22 -24 -39 -60z m39 -9 c0 -8 3 -21 6 -30 4 -12 0 -16
                                                -15 -16 -21 0 -26 15 -15 44 8 20 24 21 24 2z m28 -95 c19 -23 11 -50 -21 -69
                                                -25 -15 -30 -16 -55 -1 -30 17 -33 51 -5 81 18 21 60 15 81 -11z m-108 13 c0
                                                -3 -5 -14 -10 -25 -10 -18 -12 -18 -35 -3 -35 23 -31 34 10 34 19 0 35 -3 35
                                                -6z m178 -10 c-9 -9 -21 -13 -27 -10 -20 13 -11 26 16 26 25 0 26 -1 11 -16z
                                                m-28 -109 c7 -25 10 -48 7 -51 -3 -3 -20 8 -38 24 -33 30 -34 30 -15 51 11 12
                                                22 21 26 21 4 0 13 -20 20 -45z m-130 15 c13 -8 10 -14 -15 -35 -39 -31 -47
                                                -31 -34 1 18 48 22 51 49 34z"/>
            </g>
            <g>
                <path d="M99 2622 c13 -25 40 -46 48 -38 7 7 -36 56 -49 56 -5 0 -4 -8 1 -18z"/>
            </g>
            <g>
                <path d="M1936 2283 c-10 -10 -7 -123 4 -123 6 0 10 8 11 18 6 101 3 123 -15
                                                105z"/>
            </g>
            <g>
                <path d="M841 2358 c-5 -13 -17 -42 -26 -65 l-17 -43 -69 0 c-38 0 -69 -3 -69
                                                -8 0 -4 16 -16 35 -26 66 -36 69 -44 35 -112 -49 -98 -40 -105 52 -43 49 33
                                                64 40 77 31 23 -16 129 -72 136 -72 7 0 -5 51 -15 65 -14 19 -28 72 -21 81 3
                                                5 30 25 58 44 29 19 53 39 53 44 0 5 -33 6 -74 3 l-75 -5 -19 36 c-10 20 -22
                                                49 -26 65 -8 33 -23 35 -35 5z m34 -60 c7 -18 11 -36 9 -40 -7 -11 -52 -10
                                                -59 2 -6 9 21 70 31 70 3 0 11 -15 19 -32z m31 -95 c6 -20 2 -31 -16 -45 -28
                                                -23 -39 -22 -72 5 -20 16 -26 28 -22 45 6 19 13 22 55 22 44 0 49 -2 55 -27z
                                                m70 12 c-25 -19 -36 -19 -36 0 0 10 10 15 28 15 26 -1 26 -1 8 -15z m-206 -5
                                                c0 -5 -4 -10 -9 -10 -6 0 -13 5 -16 10 -3 6 1 10 9 10 9 0 16 -4 16 -10z m34
                                                -76 c15 -14 13 -18 -20 -40 -20 -14 -38 -23 -40 -21 -7 7 26 77 35 77 5 0 17
                                                -7 25 -16z m142 -32 c16 -38 9 -40 -31 -7 -25 21 -28 26 -15 35 21 14 30 9 46
                                                -28z"/>
            </g>
            <g>
                <path d="M70 2123 c0 -13 49 -32 56 -22 3 5 -7 14 -21 19 -32 12 -35 12 -35 3z"/>
            </g>
            <g>
                <path d="M370 1720 l-32 -80 -74 0 c-77 0 -93 -10 -46 -29 15 -6 40 -21 55
                                                -34 l28 -22 -25 -57 c-15 -33 -21 -60 -16 -63 6 -3 39 10 75 30 l65 37 61 -42
                                                c33 -23 63 -39 66 -36 5 5 -5 65 -18 116 -3 10 20 27 69 53 101 53 97 70 -15
                                                66 -97 -4 -91 -8 -117 84 -10 33 -23 57 -30 57 -8 0 -28 -36 -46 -80z m64 -37
                                                c7 -32 6 -33 -23 -33 -29 0 -31 2 -25 28 4 15 11 38 16 52 10 24 10 24 18 5 4
                                                -11 11 -35 14 -52z m171 -53 c-3 -5 -12 -10 -19 -10 -8 0 -27 -7 -42 -15 -39
                                                -20 -54 -19 -54 4 0 21 18 27 83 30 23 0 36 -3 32 -9z m-294 -10 c5 0 9 -7 9
                                                -15 0 -18 -19 -19 -42 -1 -19 14 -12 30 10 21 7 -3 18 -5 23 -5z m149 -16 c6
                                                -14 10 -27 10 -29 0 -7 -63 -35 -80 -35 -42 0 -56 64 -17 80 44 18 77 12 87
                                                -16z m-103 -81 c2 -5 -8 -18 -22 -27 -27 -18 -32 -8 -14 25 10 20 30 22 36 2z
                                                m143 -54 c0 -9 -69 32 -70 42 0 3 10 10 23 16 19 9 24 6 35 -20 6 -16 12 -33
                                                12 -38z"/>
            </g>
            <g>
                <path d="M1221 1616 l-30 -66 -65 0 c-79 0 -87 -16 -26 -55 22 -14 40 -31 40
                                                -39 0 -7 -13 -40 -30 -72 -16 -32 -27 -60 -25 -63 3 -2 39 12 80 33 42 20 80
                                                36 84 36 5 0 30 -18 57 -40 26 -21 50 -37 54 -35 4 2 0 32 -8 66 -13 52 -13
                                                62 -1 69 43 24 119 76 119 81 0 11 -42 19 -102 19 l-57 0 -6 38 c-7 44 -25 84
                                                -42 89 -7 3 -25 -23 -42 -61z m52 -58 c-6 -12 -53 -10 -53 2 0 5 10 29 22 52
                                                l23 43 6 -45 c4 -25 5 -48 2 -52z m-103 -38 c0 -19 -31 -23 -48 -6 -15 15 -14
                                                16 16 16 18 0 32 -5 32 -10z m108 -2 c5 -7 13 -23 16 -35 11 -35 -30 -51 -73
                                                -29 -31 16 -37 30 -25 60 7 19 67 22 82 4z m122 3 c0 -12 -62 -51 -72 -45 -4
                                                3 -8 16 -8 30 0 21 4 24 40 24 22 0 40 -4 40 -9z m-215 -136 c-17 -13 -36 -24
                                                -42 -25 -15 0 -17 26 -3 35 6 3 10 15 10 25 0 26 22 31 45 9 20 -19 20 -19
                                                -10 -44z m135 26 c0 -5 3 -16 6 -25 8 -20 -5 -20 -30 -1 -10 7 -15 18 -11 24
                                                8 13 35 15 35 2z"/>
            </g>
            <g>
                <path d="M550 1009 c0 -11 5 -17 10 -14 6 3 10 13 10 21 0 8 -4 14 -10 14 -5
                                                0 -10 -9 -10 -21z"/>
            </g>
            <g>
                <path d="M1388 854 c-4 -34 3 -50 16 -37 9 10 7 73 -3 73 -5 0 -11 -16 -13
                                                -36z"/>
            </g>
            <g>
                <path d="M1057 1060 c-13 -30 -27 -65 -31 -77 -7 -21 -14 -23 -77 -23 -38 0
                                                -69 -3 -69 -7 0 -5 22 -28 49 -53 l50 -45 -24 -50 c-43 -88 -29 -101 52 -49
                                                36 23 61 33 69 28 6 -5 37 -29 69 -53 31 -23 60 -39 65 -35 4 5 -4 45 -18 89
                                                -24 74 -24 80 -7 90 126 75 135 91 48 82 -32 -3 -66 -2 -77 2 -17 7 -46 69
                                                -46 102 0 8 -6 24 -14 35 -14 18 -16 16 -39 -36z m40 -50 l10 -50 -34 0 c-24
                                                0 -33 4 -29 13 2 6 10 29 17 50 7 20 15 37 19 37 4 0 12 -22 17 -50z m17 -86
                                                c24 -24 19 -50 -14 -74 -32 -23 -57 -21 -83 8 -13 15 -14 21 -2 50 12 27 19
                                                32 49 32 19 0 42 -7 50 -16z m-124 -9 c0 -8 -6 -15 -14 -15 -7 0 -19 7 -26 15
                                                -11 13 -8 15 14 15 16 0 26 -5 26 -15z m230 10 c0 -9 -57 -34 -64 -28 -17 17
                                                -4 33 29 33 19 0 35 -2 35 -5z m-195 -101 c15 -15 13 -18 -20 -41 -20 -14 -38
                                                -23 -40 -21 -6 6 27 78 35 78 5 0 16 -7 25 -16z m142 -29 c21 -61 13 -68 -36
                                                -28 l-43 36 23 18 c32 24 40 20 56 -26z"/>
            </g>
            <g>
                <path d="M2905 1099 c-3 -4 2 -6 10 -5 21 3 28 13 10 13 -9 0 -18 -4 -20 -8z"/>
            </g>
            <g>
                <path d="M122 935 c-20 -15 -28 -26 -21 -30 6 -4 24 2 40 14 28 21 29 21 29 2
                                                0 -10 -16 -33 -35 -50 -41 -35 -44 -45 -13 -35 21 6 22 5 8 -12 -8 -10 -25
                                                -31 -39 -46 -13 -15 -21 -31 -17 -35 12 -13 116 109 110 129 -3 10 0 27 7 39
                                                10 19 9 25 -7 36 -22 16 -22 16 -62 -12z"/>
            </g>
            <g>
                <path d="M222 928 c6 -17 36 -34 45 -24 4 4 -1 14 -11 22 -24 17 -39 18 -34 2z"/>
            </g>
            <g>
                <path d="M2745 910 c-3 -5 -5 -10 -3 -11 33 -8 38 -7 27 7 -14 17 -16 17 -24
                                                4z"/>
            </g>
            <g>
                <path d="M2265 920 c-3 -4 1 -13 9 -19 10 -9 16 -8 26 4 7 8 11 15 9 16 -31 6
                                                -40 6 -44 -1z"/>
            </g>
            <g>
                <path d="M640 826 c0 -16 21 -26 55 -26 13 0 28 -8 34 -17 5 -10 13 -14 17
                                                -10 14 14 -12 42 -42 45 -16 2 -33 8 -38 13 -14 13 -26 11 -26 -5z"/>
            </g>
            <g>
                <path d="M535 763 c6 -28 22 -50 28 -42 2 2 0 19 -5 37 -11 40 -33 44 -23 5z"/>
            </g>
            <g>
                <path d="M295 640 l-25 -50 -60 0 c-32 0 -62 -5 -65 -10 -3 -6 14 -22 39 -38
                                                29 -17 45 -34 46 -47 0 -22 -22 -91 -33 -101 -13 -13 -7 -34 9 -34 10 0 41 16
                                                70 35 29 19 57 35 63 35 6 0 38 -18 73 -40 38 -24 66 -36 72 -30 5 5 -1 33
                                                -17 70 -15 34 -27 63 -27 65 0 3 25 20 55 40 31 19 53 40 50 45 -3 6 -39 10
                                                -80 10 l-73 0 -23 50 c-12 28 -28 50 -36 50 -7 0 -24 -22 -38 -50z m51 -7 c21
                                                -27 16 -43 -11 -43 -27 0 -28 3 -19 38 8 27 13 27 30 5z m-96 -77 c0 -23 -13
                                                -25 -45 -5 l-30 19 38 0 c26 0 37 -4 37 -14z m142 -21 c10 -21 8 -28 -8 -40
                                                -25 -19 -48 -19 -84 0 -31 16 -34 23 -24 49 4 12 20 16 55 16 43 0 51 -3 61
                                                -25z m73 9 c-22 -17 -46 -15 -53 4 -2 8 8 12 35 12 36 -1 37 -1 18 -16z m-167
                                                -76 c18 -18 15 -26 -19 -43 -37 -20 -41 -17 -33 23 7 34 30 42 52 20z m135
                                                -28 c21 -53 16 -53 -62 7 -5 4 30 32 40 33 3 0 13 -18 22 -40z"/>
            </g>
            <g>
                <path d="M2149 594 c-9 -11 -29 -40 -44 -66 l-27 -48 -58 0 c-69 0 -83 -13
                                                -40 -38 69 -38 67 -33 37 -107 -15 -37 -26 -69 -23 -72 2 -2 37 14 77 37 82
                                                46 93 46 176 -13 41 -29 67 -32 46 -5 -10 13 -43 104 -43 120 0 4 19 17 43 29
                                                86 44 82 62 -13 53 l-55 -6 -30 67 c-28 64 -31 66 -46 49z m26 -74 c20 -39 20
                                                -40 -20 -40 -19 0 -35 3 -35 6 0 7 33 64 37 64 1 0 9 -13 18 -30z m-105 -70
                                                c0 -19 -31 -23 -48 -6 -15 15 -14 16 16 16 18 0 32 -5 32 -10z m143 -17 c9
                                                -21 9 -27 0 -30 -7 -3 -23 -13 -35 -23 -22 -18 -24 -18 -58 3 -19 11 -36 21
                                                -38 22 -1 1 2 14 7 29 9 23 16 26 61 26 45 0 52 -3 63 -27z m71 12 c-25 -19
                                                -44 -19 -44 0 0 10 10 15 32 15 30 0 31 -1 12 -15z m-180 -80 c17 -13 17 -15
                                                -15 -34 -51 -31 -62 -28 -42 14 18 38 28 42 57 20z m134 -18 l3 -28 -31 16
                                                c-26 13 -29 19 -19 31 19 23 44 12 47 -19z"/>
            </g>
        </g>
        <g>
            <path d="M15 5250 c-7 -12 -8 -921 0 -928 3 -3 7 -3 9 -1 7 7 11 939 4 939 -4
                                    0 -10 -4 -13 -10z"/>
        </g>
        <g>
            <path d="M1317 5190 c-105 -4 -172 -11 -179 -18 -9 -9 -6 -12 12 -12 18 -1 35
                                    -14 58 -45 17 -24 32 -48 32 -53 0 -5 -18 -12 -40 -16 -22 -3 -40 -11 -40 -18
                                    0 -8 41 -9 152 -5 83 4 182 7 220 7 70 0 85 8 46 25 -19 8 -24 19 -26 63 l-3
                                    52 40 0 c44 0 55 14 19 24 -25 6 -41 6 -291 -4z m113 -74 c0 -43 -3 -55 -18
                                    -58 -22 -6 -82 2 -82 11 0 3 16 27 35 54 48 64 65 62 65 -7z m74 -2 c-9 -71
                                    -30 -74 -36 -6 -6 57 -2 65 22 52 14 -8 17 -18 14 -46z m-164 42 c0 -11 -43
                                    -76 -49 -76 -4 0 -22 18 -40 40 l-32 40 61 0 c33 0 60 -2 60 -4z"/>
        </g>
        <g>
            <path d="M463 3484 c3 -3 28 -8 54 -10 33 -2 43 -1 33 6 -16 10 -97 14 -87 4z"/>
        </g>
        <g>
            <path d="M577 3450 c3 -11 11 -19 17 -17 17 6 13 31 -6 35 -12 2 -15 -2 -11
                                    -18z"/>
        </g>
        <g>
            <path d="M430 3421 c0 -6 5 -13 10 -16 6 -3 10 1 10 9 0 9 -4 16 -10 16 -5 0
                                    -10 -4 -10 -9z"/>
        </g>
        <g>
            <path d="M1866 155 c-16 -24 -16 -25 4 -25 15 0 20 7 20 25 0 14 -2 25 -4 25
                                    -2 0 -11 -11 -20 -25z"/>
        </g>
        <g>
            <path d="M2248 3 c7 -3 16 -2 19 1 4 3 -2 6 -13 5 -11 0 -14 -3 -6 -6z"/>
        </g>
    </g>
</svg>
